<?xml version="1.0" standalone="no"?>
<!DOCTYPE svg PUBLIC "-//W3C//DTD SVG 20010904//EN"
 "http://www.w3.org/TR/2001/REC-SVG-20010904/DTD/svg10.dtd">
<svg version="1.0" xmlns="http://www.w3.org/2000/svg"
 width="518.000000pt" height="518.000000pt" viewBox="0 0 518.000000 518.000000"
 preserveAspectRatio="xMidYMid meet">
<metadata>
Created by potrace 1.14, written by Peter Selinger 2001-2017
</metadata>
<g transform="translate(0.000000,518.000000) scale(0.100000,-0.100000)"
fill="#000000" stroke="none">
<path d="M2073 5119 c-789 -162 -1451 -673 -1803 -1393 -97 -197 -140 -315
-190 -510 -106 -421 -106 -844 0 -1266 58 -229 160 -481 268 -660 l57 -95 55
3 c188 11 473 60 655 112 226 66 513 183 525 215 4 11 15 92 24 180 41 380
108 997 131 1195 14 118 32 280 40 360 8 80 17 163 20 185 15 118 25 225 25
261 0 40 -2 42 -57 72 -32 16 -84 35 -115 42 l-58 11 0 285 0 284 34 0 c18 0
48 3 65 6 l32 7 -28 19 c-15 10 -53 32 -85 48 l-56 29 -7 93 c-4 51 -5 113 -3
137 4 52 -13 41 378 264 135 77 247 141 249 143 7 7 -9 4 -156 -27z"/>
<path d="M2925 5138 c105 -60 485 -279 538 -311 l67 -40 0 -138 0 -138 -80
-42 c-44 -24 -80 -46 -80 -50 0 -10 39 -19 83 -19 l37 0 -2 -286 -3 -287 -54
-14 c-85 -21 -155 -63 -159 -94 -2 -14 17 -190 42 -390 25 -200 50 -411 56
-469 6 -58 17 -166 25 -240 8 -74 19 -198 26 -275 6 -77 12 -145 14 -151 3 -9
26 -6 82 7 95 22 452 82 623 104 176 23 624 31 844 15 98 -7 180 -9 184 -5 4
4 7 120 7 258 -1 289 -13 398 -75 643 -50 196 -94 313 -190 509 -314 640 -856
1107 -1535 1324 -126 41 -394 101 -445 101 -24 -1 -24 -1 -5 -12z"/>
<path d="M2210 4860 c-422 -256 -378 -227 -360 -240 10 -7 52 -8 118 -4 l102
6 0 -156 0 -156 -90 0 -90 0 0 -130 c0 -71 -1 -133 -1 -137 -1 -4 51 -40 115
-81 100 -64 116 -78 116 -101 0 -46 -33 -371 -80 -791 -16 -146 -41 -380 -55
-520 -14 -140 -30 -282 -35 -315 -5 -33 -16 -130 -25 -215 -9 -85 -22 -208
-31 -274 -8 -65 -13 -120 -11 -123 3 -2 90 35 193 83 415 191 781 331 1062
405 61 17 82 26 82 39 0 33 -59 555 -130 1145 -22 187 -47 397 -53 467 l-13
127 92 57 c154 95 143 77 137 232 l-6 132 -88 0 -89 0 0 155 0 155 123 0 c145
1 151 -9 -73 124 -85 51 -228 138 -317 194 -178 111 -216 132 -235 132 -7 0
-168 -95 -358 -210z m690 -400 l0 -150 -327 2 -328 3 -3 148 -3 147 331 0 330
0 0 -150z m-288 -960 c127 -36 172 -182 84 -278 -33 -37 -70 -52 -129 -52 -69
0 -114 28 -146 93 -27 54 -24 110 9 164 27 46 65 67 140 82 3 0 22 -4 42 -9z"/>
<path d="M4295 2089 c-424 -27 -1004 -150 -1450 -307 -236 -84 -358 -135 -782
-330 -202 -93 -417 -190 -478 -215 -285 -117 -691 -227 -930 -253 -96 -11 -96
-12 -18 -100 167 -189 398 -385 598 -507 101 -61 248 -137 267 -137 6 0 50 23
97 51 47 29 176 100 286 159 775 415 1432 651 2040 732 101 13 524 18 739 8
l108 -5 56 95 c70 121 158 312 209 460 38 107 98 329 91 335 -2 1 -95 8 -208
14 -224 12 -439 12 -625 0z"/>
<path d="M4125 984 c-313 -33 -465 -60 -697 -124 -455 -125 -1063 -392 -1546
-678 -77 -45 -91 -57 -77 -65 26 -14 271 -74 363 -88 l82 -13 103 71 c281 193
577 332 948 444 l107 32 86 -78 c47 -44 86 -82 86 -86 0 -4 -17 -10 -37 -14
-62 -11 -352 -110 -474 -161 -111 -47 -299 -140 -389 -193 l-45 -26 78 -3 c94
-3 280 20 437 54 257 57 563 180 790 318 208 127 452 335 613 521 l60 69 -29
8 c-33 9 -399 18 -459 12z"/>
</g>
</svg>
