<?xml version="1.0" encoding="UTF-8"?><svg id="Vrstva_1" xmlns="http://www.w3.org/2000/svg" viewBox="0 0 249.44882 249.44882"><defs><style>.cls-1{fill:#fff;}.cls-1,.cls-2{stroke-width:0px;}.cls-2{fill:#1eae00;}</style></defs><circle class="cls-2" cx="124.72441" cy="124.72441" r="124.72441"/><path class="cls-1" d="M181.96182,84.3977c3.64551,10.59476.9537,22.33076-1.08226,70.33255-.37547,8.85239.64278,22.65663-10.06562,21.62891-1.16276-.11159-3.40567-1.25091-4.63034-2.98822-1.84452-2.61664-2.7172-5.82707-3.69124-13.21497-1.45855-11.06282-.1105-42.90225-.23908-45.62584-.0463-.98075.09548-2.04257-.37025-2.73413-.14407-.21394-.59809-.91138-1.73731.22784-5.95243,6.46508-22.65198,21.61973-28.42359,25.71782-9.45548,6.71381-11.90032-2.78567-14.60876-8.00342-3.43937-6.62589-10.68914-22.61796-12.31308-23.86882-1.2322-.94939-1.33412.39956-1.57402,1.21034-.58889,1.99065-3.69099,23.18769-7.0392,34.75657-3.59513,12.42113-9.87191,29.55298-16.09633,37.71781-3.78729,4.96795-19.59785,8.85497-22.91176,9.00459-.26939.06328-1.28105.14675-.96762-.97432,1.43218-5.12259,12.1244-27.87196,14.97635-38.20883,4.63655-12.14534,11.71849-40.15396,12.61971-58.91868.75623-12.36019-.34039-23.90339-.49304-27.2532.0008-4.47688,4.60369-6.93169,7.19025-7.45743,2.96811-.60357,9.4661-1.7844,16.10956,5.55387,3.91526,4.32423,9.95754,18.70235,11.62343,22.26558,2.08492,4.45806,10.38998,23.26968,13.07287,29.82898,4.9078-4.3898,11.3728-11.12914,17.95565-18.23135,7.06791-7.62571,16.17695-20.05031,19.82246-23.98062,1.50947-2.16452,9.66741,3.89813,12.87321,13.21497Z"/></svg>